:FULLY-SPECIFIED
:FORCE-ALL-JOINTS-BE-3DOF
:DEGREES
194
root 8.14052 16.6381 -10.2372 7.07833 3.70463 -2.97401
lfemur -39.2415 4.96478 -18.7182
ltibia 46.6308 0 0
lfoot -16.3367 11.8512 0
ltoes -5.43745 0 0
rfemur -9.19023 4.56331 28.8234
rtibia 22.4347 0 0
rfoot -20.3437 2.22099 0
rtoes -14.5464 0 0
lowerback -4.86053 1.8897 1.14875
upperback 0.201758 2.35559 3.21057
thorax 2.84139 1.16855 2.83526
lowerneck -19.4392 -7.69754 -14.1822
upperneck 14.4483 -9.55239 15.1396
head 9.20771 -3.81785 6.22333
lclavicle 1.25931e-14 1.26883e-15 0
lhumerus -45.79 -10.3752 95.1166
lradius 30.9275 0 0
lwrist 14.7796 0 0
lhand -15.7172 -24.1431 0
lfingers 7.12502 0 0
lthumb 10.4744 5.59798 0
rclavicle 1.25931e-14 1.26883e-15 0
rhumerus -33.335 7.53884 -77.6855
rradius 47.6952 0 0
rwrist -23.726 0 0
rhand -33.9047 -28.1157 0
rfingers 7.12502 0 0
rthumb -7.08763 -57.9792 0
195
root 8.14685 16.633 -10.1062 7.10057 3.49601 -3.1289
lfemur -39.6866 4.41146 -18.2633
ltibia 44.9823 0 0
lfoot -16.6407 12.1063 0
ltoes -5.91093 0 0
rfemur -8.06775 4.63263 29.0111
rtibia 21.1683 0 0
rfoot -20.0113 2.39122 0
rtoes -14.1669 0 0
lowerback -4.96853 1.94156 1.26993
upperback 0.165651 2.41277 3.24056
thorax 2.8659 1.19824 2.80595
lowerneck -19.2539 -7.63917 -14.2037
upperneck 14.4651 -9.48964 15.1304
head 9.17015 -3.79828 6.2361
lclavicle 9.29543e-15 7.50586e-16 0
lhumerus -46.0513 -10.4021 95.2406
lradius 30.7513 0 0
lwrist 14.6385 0 0
lhand -15.7019 -24.2208 0
lfingers 7.12502 0 0
lthumb 10.4893 5.52183 0
rclavicle 9.29543e-15 7.50586e-16 0
rhumerus -33.3894 7.76005 -77.8682
rradius 48.1128 0 0
rwrist -23.9725 0 0
rhand -33.8845 -28.131 0
rfingers 7.12502 0 0
rthumb -7.0682 -57.9953 0
196
root 8.15377 16.6278 -9.97451 7.12713 3.28607 -3.29237
lfemur -40.0864 3.82183 -17.7577
ltibia 43.2386 0 0
lfoot -16.9276 12.3806 0
ltoes -6.45138 0 0
rfemur -6.9023 4.69921 29.2031
rtibia 19.8125 0 0
rfoot -19.6307 2.57221 0
rtoes -13.7532 0 0
lowerback -5.08487 1.98848 1.39831
upperback 0.120916 2.46274 3.27422
thorax 2.88686 1.22447 2.77623
lowerneck -19.0495 -7.57472 -14.229
upperneck 14.4822 -9.41979 15.1207
head 9.12827 -3.77646 6.25074
lclavicle 5.68895e-15 9.96927e-17 0
lhumerus -46.3371 -10.4443 95.3847
lradius 30.5555 0 0
lwrist 14.4651 0 0
lhand -15.6461 -24.2935 0
lfingers 7.12502 0 0
lthumb 10.5432 5.44769 0
rclavicle 5.68895e-15 9.96927e-17 0
rhumerus -33.4813 8.01218 -78.0782
rradius 48.5305 0 0
rwrist -24.2277 0 0
rhand -33.8491 -28.1369 0
rfingers 7.12502 0 0
rthumb -7.03401 -58.0024 0
197
root 8.16127 16.6225 -9.84215 7.15797 3.07499 -3.46296
lfemur -40.446 3.20526 -17.2108
ltibia 41.4218 0 0
lfoot -17.1943 12.6692 0
ltoes -7.04768 0 0
rfemur -5.70203 4.7633 29.3975
rtibia 18.3838 0 0
rfoot -19.208 2.76232 0
rtoes -13.312 0 0
lowerback -5.20852 2.03088 1.53248
upperback 0.0685859 2.50615 3.31088
thorax 2.90468 1.24754 2.74617
lowerneck -18.8296 -7.5051 -14.2575
upperneck 14.4997 -9.34388 15.1106
head 9.08286 -3.75269 6.26693
lclavicle 1.83505e-15 -6.62603e-16 0
lhumerus -46.6433 -10.4992 95.545
lradius 30.3423 0 0
lwrist 14.2621 0 0
lhand -15.5537 -24.3612 0
lfingers 7.12502 0 0
lthumb 10.6324 5.37571 0
rclavicle 1.83505e-15 -6.62603e-16 0
rhumerus -33.607 8.29056 -78.3128
rradius 48.9458 0 0
rwrist -24.4888 0 0
rhand -33.8 -28.1359 0
rfingers 7.12502 0 0
rthumb -6.9866 -58.003 0
